HIERARCHY
ROOT Hips
{
     OFFSET 12.77890 99.59780 -77.08050
     CHANNELS 6 Xposition Yposition Zposition Zrotation Xrotation Yrotation
     JOINT Spine
     {
          OFFSET 0.00000 11.89050 0.00000
          CHANNELS 3 Zrotation Xrotation Yrotation
          JOINT Spine1
          {
               OFFSET -0.00000 25.65740 0.12766
               CHANNELS 3 Zrotation Xrotation Yrotation
               JOINT HEad
               {
                    OFFSET -0.00000 8.73416 0.01134
                    CHANNELS 3 Zrotation Xrotation Yrotation
                    End Site
                    {
                         OFFSET -0.29000 12.77420 2.51395
                    }
               }
               JOINT LeftShoulder1
               {
                    OFFSET 8.99000 -0.36225 -0.22000
                    CHANNELS 3 Zrotation Xrotation Yrotation
                    JOINT LeftArm
                    {
                         OFFSET 10.28270 -0.00338 0.32212
                         CHANNELS 3 Zrotation Xrotation Yrotation
                         JOINT LeftForeArm
                         {
                              OFFSET 32.76690 0.09914 -1.42434
                              CHANNELS 3 Zrotation Xrotation Yrotation
                              JOINT LeftHand
                              {
                                   OFFSET 27.56430 0.08536 1.02216
                                   CHANNELS 3 Zrotation Xrotation Yrotation
                                   End Site
                                   {
                                        OFFSET 16.74430 -0.60000 1.50291
                                   }
                              }
                         }
                    }
               }
               JOINT RightShoulder
               {
                    OFFSET -8.99000 -0.36225 -0.22000
                    CHANNELS 3 Zrotation Xrotation Yrotation
                    JOINT RightArm
                    {
                         OFFSET -10.28270 -0.00338 0.32212
                         CHANNELS 3 Zrotation Xrotation Yrotation
                         JOINT RightForeArm
                         {
                              OFFSET -32.89710 0.09914 -1.42434
                              CHANNELS 3 Zrotation Xrotation Yrotation
                              JOINT RightHand
                              {
                                   OFFSET -27.49210 0.08536 1.02216
                                   CHANNELS 3 Zrotation Xrotation Yrotation
                                   End Site
                                   {
                                        OFFSET -16.63120 -0.60000 1.50291
                                   }
                              }
                         }
                    }
               }
          }
     }
     JOINT LeftUpLeg
     {
          OFFSET 8.94580 -8.66707 0.10165
          CHANNELS 3 Zrotation Xrotation Yrotation
          JOINT LeftLeg
          {
               OFFSET 0.00000 -44.42270 1.37270
               CHANNELS 3 Zrotation Xrotation Yrotation
               JOINT LeftFoot
               {
                    OFFSET -0.25355 -42.09240 -1.46059
                    CHANNELS 3 Zrotation Xrotation Yrotation
                    JOINT LeftToes
                    {
                         OFFSET -0.04000 -4.41509 8.49910
                         CHANNELS 3 Zrotation Xrotation Yrotation
                         End Site
                         {
                              OFFSET 0.08000 -0.04745 9.77979
                         }
                    }
               }
          }
     }
     JOINT RightUpLeg
     {
          OFFSET -8.94580 -8.66707 0.10165
          CHANNELS 3 Zrotation Xrotation Yrotation
          JOINT RightLeg
          {
               OFFSET -0.00000 -44.42270 1.37270
               CHANNELS 3 Zrotation Xrotation Yrotation
               JOINT RightFoot
               {
                    OFFSET 0.25355 -42.09240 -1.46059
                    CHANNELS 3 Zrotation Xrotation Yrotation
                    JOINT RightToes
                    {
                         OFFSET 0.04000 -4.41509 8.49910
                         CHANNELS 3 Zrotation Xrotation Yrotation
                         End Site
                         {
                              OFFSET -0.08000 -0.13745 9.77979
                         }
                    }
               }
          }
     }
}
MOTION
Frames: 16
Frame Time: 0.01667
12.77890 99.59780 -77.08050 1.84716 -2.01240 -40.70290 1.61247 5.00369 2.93118 0.50615 10.08490 6.05960 -11.40730 -2.69345 34.71950 -0.00000 -0.00000 0.00000 -108.30700 -53.64160 -91.45590 -25.01860 36.27850 -85.37830 5.55594 9.67997 -0.87718 14.19120 1.14752 4.17064 62.48210 -15.16460 79.12780 15.31120 31.84700 89.73790 -5.55712 9.68432 0.87760 7.37525 -11.80250 5.38942 -0.49704 20.89280 -0.77523 -3.08417 -4.08645 0.10565 0.67708 -16.49080 -2.59911 -8.46644 -7.36155 -11.07610 0.80612 29.14120 6.43738 -0.30803 -24.55150 -0.33365 9.00299 10.23900 -2.46793 
12.60690 99.55350 -76.89950 1.92158 -1.97359 -40.55500 1.63823 4.91338 2.85210 0.59824 9.90590 5.89744 -11.54000 -2.11640 34.88280 -0.00000 -0.00000 0.00000 -110.64300 -53.49320 -94.17280 -25.43210 36.45540 -84.18240 5.55594 9.67997 -0.87718 14.12460 1.13616 4.12445 62.96330 -15.38850 79.52620 15.10960 31.36180 89.45820 -5.55712 9.68432 0.87760 7.41497 -11.92390 5.21189 -0.74017 21.33530 -0.85532 -2.73733 -4.97364 0.07892 0.63665 -15.68240 -2.20483 -8.39070 -7.28295 -11.06500 0.64014 29.14220 6.17517 -0.43604 -24.31520 -0.35060 8.37011 9.62642 -2.11667 
12.43140 99.51850 -76.66480 2.00775 -1.92406 -40.35520 1.65983 4.80835 2.77049 0.67915 9.69808 5.73029 -11.57240 -1.60565 35.10710 -0.00000 -0.00000 0.00000 -112.50400 -53.12450 -96.44320 -25.69790 36.54870 -83.05220 5.55594 9.67997 -0.87718 14.14700 1.13401 4.10470 63.29380 -15.56120 79.75080 14.93890 30.95530 89.22540 -5.55712 9.68432 0.87760 7.38142 -12.01510 4.93903 -0.93683 21.71060 -0.90966 -2.29398 -5.81860 0.05662 0.59022 -15.05680 -1.78332 -8.32073 -7.15025 -11.00010 0.47424 29.08440 5.85724 -0.45065 -24.18200 -0.35130 7.86626 9.13107 -1.84242 
12.25520 99.49170 -76.37250 2.10403 -1.86670 -40.15400 1.67553 4.69405 2.69795 0.74403 9.47216 5.58164 -11.51880 -1.19353 35.37150 -0.00000 -0.00000 0.00000 -113.83500 -52.64490 -98.14890 -25.83460 36.58450 -82.09470 5.55594 9.67997 -0.87718 14.24650 1.13991 4.10837 63.40390 -15.67440 79.77800 14.81150 30.65560 89.06440 -5.55712 9.68432 0.87760 7.28922 -12.06610 4.64146 -1.08592 22.02990 -0.94762 -1.81409 -6.62039 0.04098 0.54176 -14.63380 -1.35459 -8.27961 -6.97173 -10.90560 0.32435 28.98350 5.56915 -0.34925 -24.19600 -0.33629 7.56300 8.83685 -1.67018 
12.08070 99.47160 -76.02160 2.21008 -1.80175 -39.99720 1.68388 4.57489 2.64351 0.79018 9.23650 5.46968 -11.39670 -0.89473 35.65760 -0.00000 -0.00000 0.00000 -114.67100 -52.16050 -99.27750 -25.87810 36.58960 -81.37530 5.55594 9.67997 -0.87718 14.39800 1.15131 4.12802 63.24790 -15.71240 79.60670 14.72480 30.46050 88.98490 -5.55712 9.68432 0.87760 7.15871 -12.07170 4.38953 -1.19382 22.30540 -0.98551 -1.35763 -7.39251 0.03230 0.49422 -14.39840 -0.92870 -8.28152 -6.75851 -10.79470 0.20275 28.84790 5.36659 -0.15152 -24.36880 -0.30818 7.48882 8.77777 -1.61069 
11.91030 99.45660 -75.61260 2.32533 -1.72846 -39.91610 1.68340 4.45490 2.61117 0.81667 8.99873 5.40242 -11.22100 -0.70888 35.95560 -0.00000 -0.00000 0.00000 -115.08300 -51.75850 -99.87790 -25.86230 36.58320 -80.92670 5.55594 9.67997 -0.87718 14.56970 1.16501 4.15439 62.81720 -15.66360 79.25750 14.66970 30.35200 88.98090 -5.55712 9.68432 0.87760 7.00991 -12.03090 4.23372 -1.27314 22.54870 -1.03680 -0.97305 -8.15419 0.02953 0.44985 -14.31560 -0.51478 -8.33317 -6.51863 -10.66550 0.12175 28.67610 5.26181 0.11046 -24.67440 -0.27041 7.61961 8.92765 -1.65499 
11.74720 99.44570 -75.14690 2.44886 -1.64803 -39.92120 1.67138 4.33822 2.59941 0.82239 8.76670 5.37673 -11.00010 -0.62333 36.26350 -0.00000 -0.00000 0.00000 -115.13500 -51.49780 -100.02000 -25.80680 36.57260 -80.75740 5.55594 9.67997 -0.87718 14.73260 1.17799 4.17888 62.14950 -15.53560 78.76610 14.64050 30.31610 89.03510 -5.55712 9.68432 0.87760 6.85463 -11.94540 4.19281 -1.33758 22.76870 -1.10644 -0.68973 -8.92247 0.03080 0.41083 -14.34210 -0.12935 -8.43760 -6.25305 -10.50510 0.09351 28.45880 5.22706 0.40563 -25.05670 -0.22618 7.88398 9.21087 -1.77019 
11.59470 99.43800 -74.62620 2.58040 -1.56615 -40.00170 1.64247 4.22914 2.60254 0.80421 8.54848 5.38101 -10.73580 -0.61506 36.58050 -0.00000 -0.00000 0.00000 -114.86300 -51.40430 -99.76860 -25.71390 36.55450 -80.85700 5.55594 9.67997 -0.87718 14.86810 1.18820 4.19557 61.32420 -15.36680 78.17320 14.64160 30.35520 89.12520 -5.55712 9.68432 0.87760 6.69003 -11.81530 4.25254 -1.39586 22.96650 -1.18924 -0.51350 -9.70396 0.03400 0.37974 -14.43740 0.20119 -8.59750 -5.95453 -10.30040 0.12377 28.18150 5.21084 0.71546 -25.43890 -0.17748 8.17223 9.51990 -1.89465 
11.45620 99.43380 -74.05280 2.72176 -1.49319 -40.13210 1.58798 4.13133 2.61305 0.75664 8.35086 5.39969 -10.42740 -0.65367 36.90100 -0.00000 -0.00000 0.00000 -114.28700 -51.47200 -99.17600 -25.57800 36.52080 -81.19630 5.55594 9.67997 -0.87718 14.97130 1.19487 4.20181 60.44370 -15.22540 77.51280 14.68760 30.48910 89.23140 -5.55712 9.68432 0.87760 6.49725 -11.63720 4.37397 -1.44787 23.13170 -1.27043 -0.42432 -10.48590 0.03748 0.35958 -14.58040 0.44473 -8.81600 -5.61156 -10.04790 0.20377 27.83010 5.15901 1.04359 -25.74050 -0.12375 8.35680 9.74306 -1.94117 
11.33390 99.43420 -73.42950 2.87781 -1.44130 -40.28110 1.49605 4.04693 2.62384 0.67356 8.17743 5.41753 -10.07770 -0.70597 37.21330 -0.00000 -0.00000 0.00000 -113.42400 -51.67000 -98.28910 -25.39720 36.46610 -81.72550 5.55594 9.67997 -0.87718 15.04870 1.19829 4.19753 59.61060 -15.19340 76.80630 14.79780 30.74480 89.34090 -5.55712 9.68432 0.87760 6.24629 -11.40500 4.50765 -1.48519 23.24290 -1.32776 -0.37727 -11.23320 0.04075 0.35321 -14.78050 0.57549 -9.09485 -5.21676 -9.75752 0.30444 27.39970 5.03354 1.42255 -25.89750 -0.06058 8.32527 9.79514 -1.81645 
11.22860 99.44070 -72.75990 3.05610 -1.41912 -40.42210 1.35366 3.97538 2.62951 0.55200 8.02637 5.42219 -9.69644 -0.74270 37.50580 -0.00000 -0.00000 0.00000 -112.31700 -51.95630 -97.16020 -25.18140 36.39270 -82.37840 5.55594 9.67997 -0.87718 15.11170 1.19929 4.18404 58.90640 -15.34210 76.06300 14.98830 31.14210 89.44950 -5.55712 9.68432 0.87760 5.90609 -11.11450 4.60860 -1.49543 23.27450 -1.33501 -0.30819 -11.89760 0.04521 0.36176 -15.07220 0.58990 -9.43057 -4.77826 -9.45189 0.37595 26.90750 4.82386 1.91547 -25.88500 0.02088 8.02140 9.64608 -1.45477 
11.13950 99.45310 -72.04850 3.26530 -1.42681 -40.54100 1.14955 3.91296 2.62644 0.39604 7.88971 5.40479 -9.30030 -0.74496 37.77470 -0.00000 -0.00000 0.00000 -111.04200 -52.29600 -95.85370 -24.95340 36.31220 -83.08200 5.55594 9.67997 -0.87718 15.17110 1.19878 4.16318 58.37810 -15.71170 75.28860 15.26510 31.68320 89.55900 -5.55712 9.68432 0.87760 5.45585 -10.77110 4.64773 -1.46848 23.21030 -1.26649 -0.14382 -12.43710 0.05402 0.38291 -15.49420 0.51777 -9.81189 -4.33137 -9.16138 0.35487 26.40770 4.54915 2.60772 -25.73230 0.13273 7.47617 9.33492 -0.85397 
11.06600 99.47390 -71.30170 3.50669 -1.44986 -40.64060 0.89060 3.85297 2.61316 0.22023 7.75490 5.35937 -8.91124 -0.70822 38.03040 -0.00000 -0.00000 0.00000 -109.70000 -52.67620 -94.44340 -24.74390 36.24270 -83.77110 5.55594 9.67997 -0.87718 15.23270 1.19740 4.13698 58.03710 -16.29920 74.49250 15.62210 32.34970 89.67510 -5.55712 9.68432 0.87760 4.90045 -10.38260 4.61644 -1.40204 23.03210 -1.09939 0.18385 -12.82350 0.07092 0.41074 -16.06440 0.41974 -10.20980 -3.93121 -8.91817 0.17884 25.97180 4.25282 3.58504 -25.50340 0.28694 6.80870 8.96229 -0.09259 
11.00850 99.50050 -70.52650 3.77540 -1.46490 -40.73860 0.59420 3.78855 2.58842 0.04832 7.60952 5.28274 -8.55422 -0.64226 38.29690 -0.00000 -0.00000 0.00000 -108.40200 -53.11270 -92.99990 -24.58350 36.20470 -84.40220 5.55594 9.67997 -0.87718 15.29550 1.19553 4.10785 57.86530 -17.06140 73.69120 16.04250 33.10940 89.80430 -5.55712 9.68432 0.87760 4.26856 -9.97187 4.52542 -1.30608 22.75320 -0.81683 0.72647 -13.06830 0.09889 0.43804 -16.76720 0.36922 -10.59150 -3.66192 -8.74810 -0.19488 25.71650 3.99063 4.90800 -25.29670 0.49313 6.20084 8.66648 0.67347 
10.96920 99.52500 -69.73030 4.05699 -1.44561 -40.86450 0.29012 3.71561 2.55143 -0.09013 7.44735 5.17542 -8.25467 -0.56824 38.60570 -0.00000 -0.00000 0.00000 -107.24000 -53.64380 -91.57590 -24.49610 36.21610 -84.96210 5.55594 9.67997 -0.87718 15.35390 1.19345 4.07899 57.82720 -17.92910 72.90640 16.50460 33.92720 89.95350 -5.55712 9.68432 0.87760 3.61158 -9.57095 4.39818 -1.20552 22.41830 -0.40623 1.50656 -13.22230 0.13936 0.45979 -17.55540 0.42381 -10.92690 -3.62010 -8.66296 -0.77070 25.78230 3.81994 6.58934 -25.21550 0.75797 5.84653 8.58226 1.24394 
10.95460 99.52660 -68.91880 4.31274 -1.35783 -41.05420 0.05386 3.63424 2.50146 -0.16224 7.27258 5.04322 -8.03472 -0.51420 38.98590 -0.00000 -0.00000 0.00000 -106.27400 -54.31450 -90.19940 -24.49470 36.28860 -85.46590 5.55594 9.67997 -0.87718 15.40000 1.19145 4.05438 57.88140 -18.82650 72.15940 16.98730 34.77380 90.12870 -5.55712 9.68432 0.87760 3.01823 -9.24348 4.26366 -1.14043 22.16140 0.14357 2.50109 -13.40060 0.19359 0.47490 -18.35490 0.59767 -11.18220 -3.90059 -8.65560 -1.50031 26.32260 3.79447 8.58425 -25.35640 1.08688 5.89669 8.79546 1.42813 
